<?xml version="1.0" encoding="UTF-8" standalone="no"?>
<!DOCTYPE svg PUBLIC "-//W3C//DTD SVG 1.1//EN"
 "http://www.w3.org/Graphics/SVG/1.1/DTD/svg11.dtd">
<!-- Generated by graphviz version 12.1.0 (20240811.2233)
 -->
<!-- Pages: 1 -->
<svg width="688pt" height="629pt"
 viewBox="0.00 0.00 688.12 629.00" xmlns="http://www.w3.org/2000/svg" xmlns:xlink="http://www.w3.org/1999/xlink">
<g id="graph0" class="graph" transform="scale(1 1) rotate(0) translate(4 625)">
<polygon fill="white" stroke="none" points="-4,4 -4,-625 684.12,-625 684.12,4 -4,4"/>
<!-- 5191605328 -->
<g id="node1" class="node">
<title>5191605328</title>
<polygon fill="none" stroke="black" points="261.25,-73.5 261.25,-109.5 584.75,-109.5 584.75,-73.5 261.25,-73.5"/>
<text text-anchor="middle" x="423" y="-86.45" font-family="Times,serif" font-size="14.00">Operation(op: maximum, value_shape: (2,), fired: True)</text>
</g>
<!-- 5194059760 -->
<g id="node11" class="node">
<title>5194059760</title>
<polygon fill="none" stroke="black" points="305.88,-0.5 305.88,-36.5 540.12,-36.5 540.12,-0.5 305.88,-0.5"/>
<text text-anchor="middle" x="423" y="-13.45" font-family="Times,serif" font-size="14.00">Tensor(shape: (2,), requires_grad: True)</text>
</g>
<!-- 5191605328&#45;&gt;5194059760 -->
<g id="edge7" class="edge">
<title>5191605328&#45;&gt;5194059760</title>
<path fill="none" stroke="black" d="M423,-73.31C423,-65.73 423,-56.6 423,-48.04"/>
<polygon fill="black" stroke="black" points="426.5,-48.04 423,-38.04 419.5,-48.04 426.5,-48.04"/>
</g>
<!-- 5203113568 -->
<g id="node2" class="node">
<title>5203113568</title>
<polygon fill="none" stroke="black" points="175.88,-292.5 175.88,-328.5 410.12,-328.5 410.12,-292.5 175.88,-292.5"/>
<text text-anchor="middle" x="293" y="-305.45" font-family="Times,serif" font-size="14.00">Tensor(shape: (2,), requires_grad: True)</text>
</g>
<!-- 5205233296 -->
<g id="node4" class="node">
<title>5205233296</title>
<polygon fill="none" stroke="black" points="266.5,-219.5 266.5,-255.5 579.5,-255.5 579.5,-219.5 266.5,-219.5"/>
<text text-anchor="middle" x="423" y="-232.45" font-family="Times,serif" font-size="14.00">Operation(op: __add__, value_shape: (2,), fired: True)</text>
</g>
<!-- 5203113568&#45;&gt;5205233296 -->
<g id="edge10" class="edge">
<title>5203113568&#45;&gt;5205233296</title>
<path fill="none" stroke="black" d="M324.8,-292.13C341.72,-282.89 362.74,-271.41 380.99,-261.45"/>
<polygon fill="black" stroke="black" points="382.65,-264.53 389.75,-256.66 379.29,-258.38 382.65,-264.53"/>
</g>
<!-- 5205232208 -->
<g id="node3" class="node">
<title>5205232208</title>
<polygon fill="none" stroke="black" points="138.38,-365.5 138.38,-401.5 447.62,-401.5 447.62,-365.5 138.38,-365.5"/>
<text text-anchor="middle" x="293" y="-378.45" font-family="Times,serif" font-size="14.00">Operation(op: matmul, value_shape: (2,), fired: True)</text>
</g>
<!-- 5205232208&#45;&gt;5203113568 -->
<g id="edge4" class="edge">
<title>5205232208&#45;&gt;5203113568</title>
<path fill="none" stroke="black" d="M293,-365.31C293,-357.73 293,-348.6 293,-340.04"/>
<polygon fill="black" stroke="black" points="296.5,-340.04 293,-330.04 289.5,-340.04 296.5,-340.04"/>
</g>
<!-- 5203102688 -->
<g id="node10" class="node">
<title>5203102688</title>
<polygon fill="none" stroke="black" points="305.88,-146.5 305.88,-182.5 540.12,-182.5 540.12,-146.5 305.88,-146.5"/>
<text text-anchor="middle" x="423" y="-159.45" font-family="Times,serif" font-size="14.00">Tensor(shape: (2,), requires_grad: True)</text>
</g>
<!-- 5205233296&#45;&gt;5203102688 -->
<g id="edge9" class="edge">
<title>5205233296&#45;&gt;5203102688</title>
<path fill="none" stroke="black" d="M423,-219.31C423,-211.73 423,-202.6 423,-194.04"/>
<polygon fill="black" stroke="black" points="426.5,-194.04 423,-184.04 419.5,-194.04 426.5,-194.04"/>
</g>
<!-- 5203075760 -->
<g id="node5" class="node">
<title>5203075760</title>
<polygon fill="none" stroke="black" points="41.62,-438.5 41.62,-474.5 286.38,-474.5 286.38,-438.5 41.62,-438.5"/>
<text text-anchor="middle" x="164" y="-451.45" font-family="Times,serif" font-size="14.00">Tensor(shape: (3, 2), requires_grad: True)</text>
</g>
<!-- 5203075760&#45;&gt;5205232208 -->
<g id="edge5" class="edge">
<title>5203075760&#45;&gt;5205232208</title>
<path fill="none" stroke="black" d="M195.56,-438.13C212.35,-428.89 233.2,-417.41 251.31,-407.45"/>
<polygon fill="black" stroke="black" points="252.92,-410.55 260,-402.67 249.55,-404.42 252.92,-410.55"/>
</g>
<!-- 4777377488 -->
<g id="node6" class="node">
<title>4777377488</title>
<polygon fill="none" stroke="black" points="0,-511.5 0,-547.5 328,-547.5 328,-511.5 0,-511.5"/>
<text text-anchor="middle" x="164" y="-524.45" font-family="Times,serif" font-size="14.00">Operation(op: transpose, value_shape: (3, 2), fired: True)</text>
</g>
<!-- 4777377488&#45;&gt;5203075760 -->
<g id="edge2" class="edge">
<title>4777377488&#45;&gt;5203075760</title>
<path fill="none" stroke="black" d="M164,-511.31C164,-503.73 164,-494.6 164,-486.04"/>
<polygon fill="black" stroke="black" points="167.5,-486.04 164,-476.04 160.5,-486.04 167.5,-486.04"/>
</g>
<!-- 5203247344 -->
<g id="node7" class="node">
<title>5203247344</title>
<polygon fill="none" stroke="black" points="427.88,-292.5 427.88,-328.5 680.12,-328.5 680.12,-292.5 427.88,-292.5"/>
<text text-anchor="middle" x="554" y="-305.45" font-family="Times,serif" font-size="14.00">Parameter(shape: (2,), requires_grad: True)</text>
</g>
<!-- 5203247344&#45;&gt;5205233296 -->
<g id="edge6" class="edge">
<title>5203247344&#45;&gt;5205233296</title>
<path fill="none" stroke="black" d="M521.95,-292.13C504.83,-282.85 483.53,-271.3 465.08,-261.31"/>
<polygon fill="black" stroke="black" points="466.96,-258.34 456.5,-256.66 463.62,-264.5 466.96,-258.34"/>
</g>
<!-- 5203211152 -->
<g id="node8" class="node">
<title>5203211152</title>
<polygon fill="none" stroke="black" points="32.62,-584.5 32.62,-620.5 295.38,-620.5 295.38,-584.5 32.62,-584.5"/>
<text text-anchor="middle" x="164" y="-597.45" font-family="Times,serif" font-size="14.00">Parameter(shape: (2, 3), requires_grad: True)</text>
</g>
<!-- 5203211152&#45;&gt;4777377488 -->
<g id="edge3" class="edge">
<title>5203211152&#45;&gt;4777377488</title>
<path fill="none" stroke="black" d="M164,-584.31C164,-576.73 164,-567.6 164,-559.04"/>
<polygon fill="black" stroke="black" points="167.5,-559.04 164,-549.04 160.5,-559.04 167.5,-559.04"/>
</g>
<!-- 4777493920 -->
<g id="node9" class="node">
<title>4777493920</title>
<polygon fill="none" stroke="black" points="304.88,-438.5 304.88,-474.5 539.12,-474.5 539.12,-438.5 304.88,-438.5"/>
<text text-anchor="middle" x="422" y="-451.45" font-family="Times,serif" font-size="14.00">Tensor(shape: (3,), requires_grad: True)</text>
</g>
<!-- 4777493920&#45;&gt;5205232208 -->
<g id="edge1" class="edge">
<title>4777493920&#45;&gt;5205232208</title>
<path fill="none" stroke="black" d="M390.44,-438.13C373.65,-428.89 352.8,-417.41 334.69,-407.45"/>
<polygon fill="black" stroke="black" points="336.45,-404.42 326,-402.67 333.08,-410.55 336.45,-404.42"/>
</g>
<!-- 5203102688&#45;&gt;5191605328 -->
<g id="edge8" class="edge">
<title>5203102688&#45;&gt;5191605328</title>
<path fill="none" stroke="black" d="M423,-146.31C423,-138.73 423,-129.6 423,-121.04"/>
<polygon fill="black" stroke="black" points="426.5,-121.04 423,-111.04 419.5,-121.04 426.5,-121.04"/>
</g>
</g>
</svg>
