<?xml version="1.0" encoding="UTF-8" standalone="no"?>
<!DOCTYPE svg PUBLIC "-//W3C//DTD SVG 1.1//EN"
 "http://www.w3.org/Graphics/SVG/1.1/DTD/svg11.dtd">
<!-- Generated by graphviz version 12.1.0 (20240811.2233)
 -->
<!-- Pages: 1 -->
<svg width="530pt" height="191pt"
 viewBox="0.00 0.00 530.25 191.00" xmlns="http://www.w3.org/2000/svg" xmlns:xlink="http://www.w3.org/1999/xlink">
<g id="graph0" class="graph" transform="scale(1 1) rotate(0) translate(4 187)">
<polygon fill="white" stroke="none" points="-4,4 -4,-187 526.25,-187 526.25,4 -4,4"/>
<!-- 5493440128 -->
<g id="node1" class="node">
<title>5493440128</title>
<polygon fill="none" stroke="black" points="144,-0.5 144,-36.5 378.25,-36.5 378.25,-0.5 144,-0.5"/>
<text text-anchor="middle" x="261.12" y="-13.45" font-family="Times,serif" font-size="14.00">Tensor(shape: (3,), requires_grad: True)</text>
</g>
<!-- 5475416368 -->
<g id="node2" class="node">
<title>5475416368</title>
<polygon fill="none" stroke="black" points="0,-146.5 0,-182.5 252.25,-182.5 252.25,-146.5 0,-146.5"/>
<text text-anchor="middle" x="126.12" y="-159.45" font-family="Times,serif" font-size="14.00">Parameter(shape: (3,), requires_grad: True)</text>
</g>
<!-- 5487353296 -->
<g id="node3" class="node">
<title>5487353296</title>
<polygon fill="none" stroke="black" points="104.62,-73.5 104.62,-109.5 417.62,-109.5 417.62,-73.5 104.62,-73.5"/>
<text text-anchor="middle" x="261.12" y="-86.45" font-family="Times,serif" font-size="14.00">Operation(op: __add__, value_shape: (3,), fired: True)</text>
</g>
<!-- 5475416368&#45;&gt;5487353296 -->
<g id="edge3" class="edge">
<title>5475416368&#45;&gt;5487353296</title>
<path fill="none" stroke="black" d="M159.15,-146.13C176.88,-136.81 198.95,-125.2 218.02,-115.17"/>
<polygon fill="black" stroke="black" points="219.41,-118.39 226.63,-110.64 216.15,-112.2 219.41,-118.39"/>
</g>
<!-- 5487353296&#45;&gt;5493440128 -->
<g id="edge2" class="edge">
<title>5487353296&#45;&gt;5493440128</title>
<path fill="none" stroke="black" d="M261.12,-73.31C261.12,-65.73 261.12,-56.6 261.12,-48.04"/>
<polygon fill="black" stroke="black" points="264.63,-48.04 261.13,-38.04 257.63,-48.04 264.63,-48.04"/>
</g>
<!-- 5476873184 -->
<g id="node4" class="node">
<title>5476873184</title>
<polygon fill="none" stroke="black" points="270,-146.5 270,-182.5 522.25,-182.5 522.25,-146.5 270,-146.5"/>
<text text-anchor="middle" x="396.12" y="-159.45" font-family="Times,serif" font-size="14.00">Parameter(shape: (3,), requires_grad: True)</text>
</g>
<!-- 5476873184&#45;&gt;5487353296 -->
<g id="edge1" class="edge">
<title>5476873184&#45;&gt;5487353296</title>
<path fill="none" stroke="black" d="M363.1,-146.13C345.37,-136.81 323.3,-125.2 304.23,-115.17"/>
<polygon fill="black" stroke="black" points="306.1,-112.2 295.62,-110.64 302.84,-118.39 306.1,-112.2"/>
</g>
</g>
</svg>
